<svg width="1400" height="900" viewBox="0 0 1400 900" fill="none" xmlns="http://www.w3.org/2000/svg">
  <rect width="1400" height="900" rx="48" fill="#101010"/>
  <rect x="72" y="72" width="1256" height="756" rx="38" fill="#161616" stroke="rgba(255,255,255,0.08)"/>
  <circle cx="160" cy="140" r="10" fill="#00C896"/>
  <rect x="186" y="126" width="248" height="28" rx="14" fill="#232323"/>
  <rect x="944" y="122" width="286" height="36" rx="18" fill="#F8C8DC" fill-opacity="0.16"/>
  <rect x="104" y="210" width="366" height="514" rx="28" fill="#0F0F0F" stroke="rgba(255,255,255,0.06)"/>
  <rect x="132" y="246" width="156" height="18" rx="9" fill="#00C896" fill-opacity="0.18"/>
  <rect x="132" y="292" width="308" height="72" rx="20" fill="#1D1D1D"/>
  <rect x="150" y="314" width="88" height="14" rx="7" fill="#FFFFFF"/>
  <rect x="150" y="338" width="208" height="10" rx="5" fill="#FFFFFF" fill-opacity="0.42"/>
  <rect x="132" y="384" width="308" height="72" rx="20" fill="#171717"/>
  <rect x="150" y="406" width="104" height="14" rx="7" fill="#FFFFFF"/>
  <rect x="150" y="430" width="178" height="10" rx="5" fill="#FFFFFF" fill-opacity="0.42"/>
  <rect x="132" y="476" width="308" height="72" rx="20" fill="#171717"/>
  <rect x="150" y="498" width="122" height="14" rx="7" fill="#FFFFFF"/>
  <rect x="150" y="522" width="156" height="10" rx="5" fill="#FFFFFF" fill-opacity="0.42"/>
  <rect x="516" y="210" width="706" height="514" rx="28" fill="#121212" stroke="rgba(255,255,255,0.06)"/>
  <rect x="556" y="250" width="174" height="22" rx="11" fill="#FFFFFF"/>
  <rect x="970" y="246" width="212" height="34" rx="17" fill="#00C896" fill-opacity="0.16"/>
  <rect x="556" y="322" width="626" height="306" rx="26" fill="#181818"/>
  <line x1="556" y1="390" x2="1182" y2="390" stroke="rgba(255,255,255,0.08)" stroke-width="2"/>
  <line x1="556" y1="458" x2="1182" y2="458" stroke="rgba(255,255,255,0.08)" stroke-width="2"/>
  <line x1="556" y1="526" x2="1182" y2="526" stroke="rgba(255,255,255,0.08)" stroke-width="2"/>
  <line x1="676" y1="322" x2="676" y2="628" stroke="rgba(255,255,255,0.08)" stroke-width="2"/>
  <line x1="796" y1="322" x2="796" y2="628" stroke="rgba(255,255,255,0.08)" stroke-width="2"/>
  <line x1="916" y1="322" x2="916" y2="628" stroke="rgba(255,255,255,0.08)" stroke-width="2"/>
  <line x1="1036" y1="322" x2="1036" y2="628" stroke="rgba(255,255,255,0.08)" stroke-width="2"/>
  <rect x="692" y="406" width="208" height="52" rx="18" fill="#00C896"/>
  <rect x="934" y="474" width="168" height="52" rx="18" fill="#F8C8DC" fill-opacity="0.72"/>
  <rect x="570" y="648" width="208" height="32" rx="16" fill="#232323"/>
  <rect x="794" y="648" width="170" height="32" rx="16" fill="#232323"/>
  <rect x="980" y="648" width="170" height="32" rx="16" fill="#232323"/>
</svg>
